<?xml version="1.0" standalone="no"?>
<!DOCTYPE svg PUBLIC "-//W3C//DTD SVG 20010904//EN"
 "http://www.w3.org/TR/2001/REC-SVG-20010904/DTD/svg10.dtd">
<svg version="1.0" xmlns="http://www.w3.org/2000/svg"
 width="500.000000pt" height="500.000000pt" viewBox="0 0 500.000000 500.000000"
 preserveAspectRatio="xMidYMid meet">
<metadata>
Created by potrace 1.14, written by Peter Selinger 2001-2017
</metadata>
<g transform="translate(0.000000,500.000000) scale(0.100000,-0.100000)"
fill="#000000" stroke="none">
<path d="M0 3730 l0 -1269 53 5 c28 3 160 20 292 37 204 26 273 31 460 32 208
0 222 -1 261 -22 82 -44 91 -123 43 -345 -39 -178 -43 -287 -13 -338 43 -74
123 -104 255 -98 109 5 155 27 187 89 20 38 23 53 18 114 -3 39 -18 117 -33
175 -20 79 -27 131 -27 211 -1 99 1 108 27 147 51 77 144 103 295 83 80 -11
674 -53 678 -48 7 8 37 527 41 724 7 315 -8 402 -77 438 -46 24 -106 18 -276
-27 -204 -53 -299 -57 -361 -16 -53 35 -82 97 -96 201 -19 151 19 276 98 322
81 47 162 42 408 -26 157 -43 184 -46 227 -24 54 28 65 64 65 220 0 160 -13
555 -21 633 l-5 52 -1250 0 -1249 0 0 -1270z"/>
<path d="M3752 3256 c-59 -15 -95 -37 -126 -80 -18 -24 -21 -42 -21 -129 1
-87 6 -121 39 -235 45 -159 51 -237 20 -279 -67 -90 -198 -98 -876 -56 -153 9
-279 15 -281 12 -2 -2 -17 -187 -33 -410 -32 -460 -32 -466 37 -531 71 -67
171 -71 400 -13 104 27 217 34 259 17 81 -32 125 -165 100 -304 -15 -83 -49
-134 -108 -160 -39 -18 -59 -20 -131 -15 -48 3 -134 17 -192 31 -149 35 -199
40 -257 26 -92 -22 -110 -60 -118 -255 -6 -134 -4 -162 52 -638 l28 -237 1228
0 1228 0 0 1245 0 1245 -67 -1 c-38 0 -204 -6 -371 -13 -375 -16 -435 -9 -468
56 -24 46 -16 118 27 264 36 119 42 153 43 240 1 93 -1 103 -26 141 -42 64
-99 86 -227 90 -66 1 -126 -3 -159 -11z"/>
</g>
</svg>
